<svg xmlns:dc="http://purl.org/dc/elements/1.1/" xmlns:cc="http://creativecommons.org/ns#" xmlns:rdf="http://www.w3.org/1999/02/22-rdf-syntax-ns#" xmlns:svg="http://www.w3.org/2000/svg" xmlns="http://www.w3.org/2000/svg" xmlns:sodipodi="http://sodipodi.sourceforge.net/DTD/sodipodi-0.dtd" xmlns:inkscape="http://www.inkscape.org/namespaces/inkscape" version="1.1" x="0px" y="0px" viewBox="0 0 100 125"><g transform="translate(0,-952.36218)"><path style="text-indent:0;text-transform:none;direction:ltr;block-progression:tb;baseline-shift:baseline;color:#000000;enable-background:accumulate;" d="m 27.3125,959.36442 c -0.4584,0.0883 -0.82072,0.52914 -0.8125,1 l 0,10.34375 -9.46875,0 c -0.52358,0 -0.99995,0.5029 -1,1.03125 l 0,62.43748 -8.03125,0 c -0.52358,0 -0.99995,0.4717 -1,1 l 0,9.1875 c 0,0.5284 0.47642,1 1,1 l 84,0 c 0.52358,0 0.99995,-0.4716 1,-1 l 0,-9.1875 c 0,-0.5283 -0.47642,-0.9999 -1,-1 l -8,0 0,-62.43748 c 0,-0.52835 -0.47642,-1.0312 -1,-1.03125 l -9.5,0 0,-10.34375 c 0,-0.52836 -0.47642,-0.99995 -1,-1 l -45,0 c -0.0623,-0.006 -0.12518,-0.006 -0.1875,0 z m 1.1875,2.03125 43,0 c -0.008,24.25694 0,48.51043 0,72.78123 l -43,0 c 0.002,-24.2638 0,-48.54034 0,-72.78123 z m -10.46875,11.34375 8.46875,0 0,61.43748 -8.46875,0 0,-61.43748 z m 55.46875,0 8.5,0 0,61.43748 -8.5,0 0,-61.43748 z" fill="#000000" fill-opacity="1" fill-rule="evenodd" stroke="none" marker="none" visibility="visible" display="inline" overflow="visible"/><path style="text-indent:0;text-transform:none;direction:ltr;block-progression:tb;baseline-shift:baseline;color:#000000;enable-background:accumulate;" d="m 34.0125,966.3987 a 1.0001,1.0092152 0 0 0 -1,1.00912 l 0,13.54231 a 1.0001,1.0092152 0 0 0 1,1.00912 l 5.19,0 a 1.0001,1.0092152 0 0 0 1,-1.00912 l 0,-13.54231 a 1.0001,1.0092152 0 0 0 -1,-1.00912 l -5.19,0 z" fill="#000000" fill-opacity="1" fill-rule="evenodd" stroke="none" marker="none" visibility="visible" display="inline" overflow="visible"/><path style="text-indent:0;text-transform:none;direction:ltr;block-progression:tb;baseline-shift:baseline;color:#000000;enable-background:accumulate;" d="m 60.8225,966.3987 a 1.0001,1.0092152 0 0 0 -1,1.00912 l 0,13.54231 a 1.0001,1.0092152 0 0 0 1,1.00912 l 5.19,0 a 1.0001,1.0092152 0 0 0 1,-1.00912 l 0,-13.54231 a 1.0001,1.0092152 0 0 0 -1,-1.00912 l -5.19,0 z" fill="#000000" fill-opacity="1" fill-rule="evenodd" stroke="none" marker="none" visibility="visible" display="inline" overflow="visible"/><path style="text-indent:0;text-transform:none;direction:ltr;block-progression:tb;baseline-shift:baseline;color:#000000;enable-background:accumulate;" d="m 34.0125,1010.7594 a 1.0001,1.0092152 0 0 0 -1,1.0091 l 0,13.5423 a 1.0001,1.0092152 0 0 0 1,1.0091 l 5.19,0 a 1.0001,1.0092152 0 0 0 1,-1.0091 l 0,-13.5423 a 1.0001,1.0092152 0 0 0 -1,-1.0091 l -5.19,0 z" fill="#000000" fill-opacity="1" fill-rule="evenodd" stroke="none" marker="none" visibility="visible" display="inline" overflow="visible"/><path style="text-indent:0;text-transform:none;direction:ltr;block-progression:tb;baseline-shift:baseline;color:#000000;enable-background:accumulate;" d="m 60.8225,1010.7594 a 1.0001,1.0092152 0 0 0 -1,1.0091 l 0,13.5423 a 1.0001,1.0092152 0 0 0 1,1.0091 l 5.19,0 a 1.0001,1.0092152 0 0 0 1,-1.0091 l 0,-13.5423 a 1.0001,1.0092152 0 0 0 -1,-1.0091 l -5.19,0 z" fill="#000000" fill-opacity="1" fill-rule="evenodd" stroke="none" marker="none" visibility="visible" display="inline" overflow="visible"/><path style="text-indent:0;text-transform:none;direction:ltr;block-progression:tb;baseline-shift:baseline;color:#000000;enable-background:accumulate;" d="m 34.0125,989.09368 a 1.0001,1.0092152 0 0 0 -1,1.00912 l 0,13.5423 a 1.0001,1.0092152 0 0 0 1,1.0091 l 5.19,0 a 1.0001,1.0092152 0 0 0 1,-1.0091 l 0,-13.5423 a 1.0001,1.0092152 0 0 0 -1,-1.00912 l -5.19,0 z" fill="#000000" fill-opacity="1" fill-rule="evenodd" stroke="none" marker="none" visibility="visible" display="inline" overflow="visible"/><path style="text-indent:0;text-transform:none;direction:ltr;block-progression:tb;baseline-shift:baseline;color:#000000;enable-background:accumulate;" d="m 60.8225,989.09368 a 1.0001,1.0092152 0 0 0 -1,1.00912 l 0,13.5423 a 1.0001,1.0092152 0 0 0 1,1.0091 l 5.19,0 a 1.0001,1.0092152 0 0 0 1,-1.0091 l 0,-13.5423 a 1.0001,1.0092152 0 0 0 -1,-1.00912 l -5.19,0 z" fill="#000000" fill-opacity="1" fill-rule="evenodd" stroke="none" marker="none" visibility="visible" display="inline" overflow="visible"/></g><text x="0" y="115" fill="#000000" font-size="5px" font-weight="bold" font-family="'Helvetica Neue', Helvetica, Arial-Unicode, Arial, Sans-serif">Created by alerma</text><text x="0" y="120" fill="#000000" font-size="5px" font-weight="bold" font-family="'Helvetica Neue', Helvetica, Arial-Unicode, Arial, Sans-serif">from the Noun Project</text></svg>